<?xml version="1.0" encoding="UTF-8"?>
<svg xmlns="http://www.w3.org/2000/svg" xmlns:xlink="http://www.w3.org/1999/xlink" width="36pt" height="36.000001pt" viewBox="0 0 36 36.000001" version="1.2">
<defs>
<clipPath id="clip1">
  <path d="M 0.488281 0 L 35.511719 0 L 35.511719 35.027344 L 0.488281 35.027344 Z M 0.488281 0 "/>
</clipPath>
<clipPath id="clip2">
  <path d="M 2.246094 3.503906 L 33.625 3.503906 L 33.625 31.234375 L 2.246094 31.234375 Z M 2.246094 3.503906 "/>
</clipPath>
</defs>
<g id="surface1">
<g clip-path="url(#clip1)" clip-rule="nonzero">
<path style=" stroke:none;fill-rule:nonzero;fill:rgb(5.879211%,34.509277%,42.349243%);fill-opacity:1;" d="M 0.488281 0 L 35.582031 0 L 35.582031 35.097656 L 0.488281 35.097656 Z M 0.488281 0 "/>
</g>
<g clip-path="url(#clip2)" clip-rule="nonzero">
<path style=" stroke:none;fill-rule:nonzero;fill:rgb(99.21875%,72.549438%,15.289307%);fill-opacity:1;" d="M 16.816406 4.027344 C 12.015625 11.554688 7.214844 19.082031 2.410156 26.609375 C 2.074219 27.140625 2.3125 27.824219 2.816406 28.140625 C 4.355469 29.113281 5.894531 30.082031 7.433594 31.054688 C 7.96875 31.390625 8.65625 31.152344 8.976562 30.652344 C 12.253906 25.511719 15.53125 20.371094 18.8125 15.230469 C 18.160156 15.230469 17.515625 15.230469 16.863281 15.230469 C 20.21875 20.378906 23.566406 25.527344 26.921875 30.671875 C 27.242188 31.167969 27.929688 31.417969 28.460938 31.074219 C 29.992188 30.089844 31.523438 29.105469 33.050781 28.121094 C 33.550781 27.800781 33.800781 27.117188 33.457031 26.589844 C 28.558594 19.070312 23.660156 11.546875 18.761719 4.027344 C 17.976562 2.820312 16.023438 3.941406 16.816406 5.15625 C 21.714844 12.675781 26.613281 20.199219 31.511719 27.71875 C 31.644531 27.210938 31.78125 26.699219 31.914062 26.1875 C 30.386719 27.171875 28.855469 28.15625 27.324219 29.140625 C 27.839844 29.273438 28.351562 29.410156 28.867188 29.542969 C 25.515625 24.394531 22.164062 19.25 18.8125 14.101562 C 18.34375 13.386719 17.328125 13.375 16.863281 14.101562 C 13.585938 19.242188 10.308594 24.382812 7.03125 29.523438 C 7.542969 29.386719 8.058594 29.253906 8.570312 29.121094 C 7.03125 28.148438 5.492188 27.179688 3.953125 26.210938 C 4.085938 26.71875 4.222656 27.230469 4.355469 27.742188 C 9.160156 20.210938 13.960938 12.683594 18.761719 5.15625 C 19.542969 3.933594 17.59375 2.808594 16.816406 4.027344 Z M 16.816406 4.027344 "/>
</g>
</g>
</svg>
