<?xml version="1.0" encoding="UTF-8"?>
<svg xmlns="http://www.w3.org/2000/svg" xmlns:xlink="http://www.w3.org/1999/xlink" width="75pt" height="74.999997pt" viewBox="0 0 75 74.999997" version="1.2">
<defs>
<clipPath id="clip1">
  <path d="M 0 4.148438 L 75 4.148438 L 75 70.898438 L 0 70.898438 Z M 0 4.148438 "/>
</clipPath>
</defs>
<g id="surface1">
<g clip-path="url(#clip1)" clip-rule="nonzero">
<path style=" stroke:none;fill-rule:nonzero;fill:rgb(100%,100%,100%);fill-opacity:1;" d="M 34.828125 5.410156 C 23.351562 23.53125 11.875 41.652344 0.398438 59.773438 C -0.410156 61.046875 0.160156 62.699219 1.363281 63.460938 C 5.042969 65.796875 8.722656 68.132812 12.402344 70.46875 C 13.675781 71.277344 15.324219 70.707031 16.085938 69.5 C 23.921875 57.128906 31.757812 44.757812 39.59375 32.382812 C 38.042969 32.382812 36.492188 32.382812 34.941406 32.382812 C 42.953125 44.773438 50.964844 57.164062 58.976562 69.550781 C 59.742188 70.742188 61.386719 71.34375 62.660156 70.519531 C 66.316406 68.148438 69.976562 65.78125 73.632812 63.410156 C 74.820312 62.640625 75.421875 60.996094 74.597656 59.722656 C 62.890625 41.617188 51.183594 23.515625 39.476562 5.410156 C 37.597656 2.503906 32.933594 5.203125 34.828125 8.128906 C 46.535156 26.234375 58.242188 44.339844 69.949219 62.441406 C 70.269531 61.214844 70.59375 59.984375 70.914062 58.757812 C 67.257812 61.125 63.597656 63.496094 59.941406 65.867188 C 61.167969 66.1875 62.398438 66.507812 63.625 66.832031 C 55.613281 54.441406 47.605469 42.050781 39.59375 29.664062 C 38.480469 27.9375 36.050781 27.910156 34.941406 29.664062 C 27.109375 42.035156 19.273438 54.410156 11.4375 66.78125 C 12.664062 66.457031 13.890625 66.136719 15.121094 65.816406 C 11.441406 63.476562 7.761719 61.144531 4.082031 58.808594 C 4.402344 60.035156 4.726562 61.265625 5.046875 62.492188 C 16.523438 44.375 28 26.25 39.476562 8.128906 C 41.34375 5.183594 36.679688 2.484375 34.828125 5.410156 Z M 34.828125 5.410156 "/>
</g>
</g>
</svg>
