<svg xmlns="http://www.w3.org/2000/svg" width="237" height="80" viewBox="0 0 237 80">
    <g fill="none" fill-rule="nonzero">
        <path fill="#A6A6A6" d="M217.516 0H18.831c-.724 0-1.44 0-2.162.004-.605.004-1.205.016-1.815.025-1.326.016-2.65.134-3.958.354a13.05 13.05 0 0 0-3.754 1.254 12.723 12.723 0 0 0-3.197 2.357 12.512 12.512 0 0 0-2.327 3.242 13.32 13.32 0 0 0-1.234 3.807 26.306 26.306 0 0 0-.354 4.004c-.018.613-.02 1.228-.03 1.842v46.228c.01.621.012 1.223.03 1.844.016 1.342.134 2.68.354 4.004.217 1.326.633 2.61 1.234 3.808a12.41 12.41 0 0 0 2.327 3.229 12.4 12.4 0 0 0 3.197 2.357 13.12 13.12 0 0 0 3.754 1.262 26.25 26.25 0 0 0 3.958.354c.61.013 1.21.021 1.815.021.722.004 1.438.004 2.162.004h198.685c.71 0 1.431 0 2.141-.004.602 0 1.219-.008 1.82-.021a25.907 25.907 0 0 0 3.95-.354 13.322 13.322 0 0 0 3.77-1.262 12.406 12.406 0 0 0 3.193-2.357 12.783 12.783 0 0 0 2.334-3.229 13.326 13.326 0 0 0 1.223-3.808c.22-1.324.343-2.662.366-4.004.008-.621.008-1.223.008-1.844.016-.726.016-1.449.016-2.187V19.072c0-.732 0-1.459-.016-2.183 0-.614 0-1.229-.008-1.842a27.347 27.347 0 0 0-.366-4.004 13.354 13.354 0 0 0-1.223-3.807 12.853 12.853 0 0 0-5.527-5.6 13.25 13.25 0 0 0-3.77-1.253 25.448 25.448 0 0 0-3.95-.354c-.601-.01-1.218-.021-1.82-.025-.71-.004-1.431-.004-2.14-.004z"/>
        <path fill="#000" d="M16.679 78.25c-.602 0-1.19-.008-1.786-.021a24.752 24.752 0 0 1-3.692-.327 11.52 11.52 0 0 1-3.272-1.095 10.683 10.683 0 0 1-2.76-2.034 10.636 10.636 0 0 1-2.015-2.793 11.545 11.545 0 0 1-1.072-3.314 25.133 25.133 0 0 1-.329-3.75c-.012-.422-.029-1.826-.029-1.826V16.889s.018-1.383.03-1.79c.014-1.254.124-2.506.326-3.744.189-1.156.55-2.278 1.073-3.324a10.743 10.743 0 0 1 2.005-2.796 11 11 0 0 1 2.77-2.045 11.4 11.4 0 0 1 3.265-1.087 24.554 24.554 0 0 1 3.704-.329l1.783-.024h202.967l1.804.025c1.23.015 2.456.124 3.67.326 1.148.197 2.26.566 3.3 1.095a11.119 11.119 0 0 1 4.77 4.84c.514 1.04.87 2.151 1.057 3.298.205 1.248.32 2.51.343 3.774.006.567.006 1.175.006 1.78.015.75.015 1.465.015 2.184V60.93c0 .726 0 1.435-.015 2.15 0 .65 0 1.246-.008 1.86a25.776 25.776 0 0 1-.337 3.706 11.581 11.581 0 0 1-1.067 3.34 10.955 10.955 0 0 1-2.006 2.772 10.698 10.698 0 0 1-2.764 2.045 11.476 11.476 0 0 1-3.294 1.1 24.47 24.47 0 0 1-3.692.326c-.578.013-1.184.021-1.772.021l-2.14.004-200.838-.004z"/>
        <g fill="#FFF">
            <path d="M48.919 40.601c.043-3.393 1.8-6.527 4.654-8.304a9.972 9.972 0 0 0-7.883-4.315c-3.316-.353-6.531 2.01-8.222 2.01-1.722 0-4.324-1.975-7.126-1.917-3.687.12-7.04 2.192-8.834 5.456-3.82 6.697-.97 16.539 2.688 21.952 1.83 2.65 3.97 5.612 6.77 5.507 2.74-.115 3.762-1.77 7.069-1.77 3.276 0 4.236 1.77 7.092 1.703 2.94-.048 4.792-2.662 6.558-5.338a22.039 22.039 0 0 0 2.999-6.185c-3.491-1.496-5.761-4.96-5.765-8.799zM43.524 24.422a9.827 9.827 0 0 0 2.2-6.981 9.752 9.752 0 0 0-6.334 3.319 9.347 9.347 0 0 0-2.26 6.723 8.057 8.057 0 0 0 6.394-3.061z"/>
            <g>
                <path d="M83.547 54.28h-9.348l-2.246 6.712h-3.96l8.856-24.836h4.113l8.855 24.836H85.79l-2.243-6.713zm-8.38-3.098h7.41l-3.653-10.895h-.102l-3.655 10.895zM108.94 51.94c0 5.626-2.974 9.242-7.462 9.242a6.046 6.046 0 0 1-5.626-3.168h-.085v8.968h-3.67V42.885h3.553v3.011h.067a6.326 6.326 0 0 1 5.694-3.2c4.538 0 7.53 3.632 7.53 9.243zm-3.772 0c0-3.667-1.871-6.077-4.726-6.077-2.804 0-4.69 2.461-4.69 6.076 0 3.649 1.886 6.092 4.69 6.092 2.855 0 4.726-2.392 4.726-6.092zM128.62 51.94c0 5.626-2.973 9.242-7.461 9.242a6.046 6.046 0 0 1-5.626-3.168h-.085v8.968h-3.67V42.885h3.552v3.011h.068a6.326 6.326 0 0 1 5.693-3.2c4.539 0 7.53 3.632 7.53 9.243zm-3.772 0c0-3.667-1.87-6.077-4.725-6.077-2.804 0-4.69 2.461-4.69 6.076 0 3.649 1.886 6.092 4.69 6.092 2.855 0 4.725-2.392 4.725-6.092zM141.628 54.072c.272 2.463 2.635 4.08 5.863 4.08 3.094 0 5.32-1.617 5.32-3.838 0-1.927-1.343-3.082-4.521-3.873l-3.179-.775c-4.503-1.102-6.594-3.234-6.594-6.695 0-4.286 3.688-7.229 8.924-7.229 5.183 0 8.735 2.943 8.855 7.229h-3.705c-.222-2.479-2.245-3.975-5.202-3.975s-4.98 1.514-4.98 3.717c0 1.756 1.293 2.789 4.454 3.58l2.702.672c5.032 1.205 7.123 3.252 7.123 6.884 0 4.647-3.655 7.557-9.469 7.557-5.439 0-9.11-2.842-9.348-7.334h3.757zM164.609 38.6v4.285h3.4v2.943h-3.4v9.983c0 1.55.68 2.273 2.175 2.273.404-.007.807-.036 1.208-.086v2.926a9.957 9.957 0 0 1-2.039.172c-3.62 0-5.032-1.377-5.032-4.889V45.828h-2.6v-2.943h2.6V38.6h3.688zM169.978 51.94c0-5.698 3.314-9.278 8.48-9.278 5.185 0 8.483 3.58 8.483 9.277 0 5.713-3.28 9.278-8.482 9.278-5.2 0-8.48-3.565-8.48-9.278zm13.224 0c0-3.909-1.769-6.215-4.743-6.215s-4.74 2.324-4.74 6.214c0 3.924 1.766 6.213 4.74 6.213s4.743-2.289 4.743-6.213zM189.967 42.885h3.501v3.082h.085c.488-1.984 2.283-3.35 4.301-3.272.423-.001.845.045 1.258.139v3.477a5.071 5.071 0 0 0-1.65-.225 3.675 3.675 0 0 0-2.858 1.192 3.775 3.775 0 0 0-.966 2.974v10.74h-3.67V42.885zM216.034 55.674c-.494 3.287-3.655 5.543-7.7 5.543-5.201 0-8.43-3.53-8.43-9.192 0-5.68 3.246-9.363 8.276-9.363 4.947 0 8.058 3.442 8.058 8.932v1.273H203.61v.225a4.752 4.752 0 0 0 1.262 3.664 4.628 4.628 0 0 0 3.548 1.465 4.04 4.04 0 0 0 4.13-2.547h3.485zm-12.407-5.404h8.94A4.386 4.386 0 0 0 211.364 47a4.273 4.273 0 0 0-3.185-1.327 4.498 4.498 0 0 0-3.222 1.337 4.614 4.614 0 0 0-1.331 3.259z"/>
            </g>
        </g>
        <g fill="#FFF">
            <path d="M69.315 29.352V16.566h4.799c2.243 0 3.59 1.223 3.59 3.19.002 1.332-.873 2.48-2.092 2.747v.15c1.525.078 2.716 1.44 2.689 3.075 0 2.25-1.53 3.624-4.08 3.624h-4.906zm1.854-7.372h2.2c1.64 0 2.491-.647 2.491-1.86 0-1.18-.803-1.87-2.176-1.87h-2.515v3.73zm2.68 5.689c1.671 0 2.556-.727 2.556-2.082 0-1.339-.918-2.039-2.663-2.039H71.17v4.12h2.68zM80.206 26.624c0-1.737 1.207-2.739 3.35-2.881l2.44-.15v-.834c0-1.019-.628-1.594-1.844-1.594-.992 0-1.68.39-1.877 1.072h-1.722c.182-1.657 1.638-2.72 3.681-2.72 2.259 0 3.533 1.204 3.533 3.242v6.593h-1.712v-1.356h-.14c-.582.99-1.615 1.57-2.706 1.515a2.607 2.607 0 0 1-2.1-.73 3.01 3.01 0 0 1-.903-2.157zm5.79-.825v-.807l-2.2.151c-1.24.089-1.803.54-1.803 1.392 0 .868.704 1.373 1.67 1.373a2.03 2.03 0 0 0 1.585-.525c.44-.397.71-.969.749-1.584zM90.319 16.85c-.028-.505.234-.977.661-1.19a1.094 1.094 0 0 1 1.278.218c.344.347.455.883.281 1.353-.173.47-.597.779-1.07.78a1.054 1.054 0 0 1-.806-.318 1.213 1.213 0 0 1-.344-.843zm.263 2.853h1.773v9.65h-1.773v-9.65zM98.456 25.932l-1.97 3.42h-1.951l2.987-4.802-3.012-4.847h2.077l1.936 3.403h.14l1.92-3.403h1.976l-2.97 4.767 3.004 4.882h-2.042l-1.962-3.42zM104.161 26.624c0-1.737 1.208-2.739 3.351-2.881l2.44-.15v-.834c0-1.019-.629-1.594-1.844-1.594-.992 0-1.68.39-1.877 1.072h-1.722c.182-1.657 1.638-2.72 3.681-2.72 2.259 0 3.533 1.204 3.533 3.242v6.593h-1.712v-1.356h-.14c-.582.99-1.616 1.57-2.706 1.515a2.607 2.607 0 0 1-2.1-.73 3.01 3.01 0 0 1-.904-2.157zm5.792-.825v-.807l-2.2.151c-1.241.089-1.804.54-1.804 1.392 0 .868.704 1.373 1.67 1.373a2.03 2.03 0 0 0 1.585-.525c.44-.397.71-.969.749-1.584zM114.507 19.703h1.712v1.48h.132c.394-1.054 1.376-1.716 2.433-1.64.266-.004.532.023.793.08v1.879a4.56 4.56 0 0 0-.992-.115 2.026 2.026 0 0 0-1.62.589 2.339 2.339 0 0 0-.68 1.68v5.696h-1.778v-9.649zM126.43 19.703h1.712v1.533h.133c.462-1.129 1.541-1.819 2.688-1.72.888-.07 1.758.294 2.365.992.607.699.884 1.654.754 2.598v6.246h-1.778v-5.768c0-1.55-.63-2.322-1.945-2.322a1.999 1.999 0 0 0-1.6.693 2.313 2.313 0 0 0-.55 1.752v5.645h-1.78v-9.649zM136.319 26.624c0-1.737 1.207-2.739 3.35-2.881l2.44-.15v-.834c0-1.019-.628-1.594-1.844-1.594-.992 0-1.68.39-1.877 1.072h-1.722c.182-1.657 1.638-2.72 3.681-2.72 2.259 0 3.533 1.204 3.533 3.242v6.593h-1.712v-1.356h-.14c-.582.99-1.615 1.57-2.706 1.515a2.607 2.607 0 0 1-2.1-.73 3.01 3.01 0 0 1-.903-2.157zm5.79-.825v-.807l-2.2.151c-1.24.089-1.803.54-1.803 1.392 0 .868.704 1.373 1.67 1.373a2.03 2.03 0 0 0 1.585-.525c.44-.397.71-.969.749-1.584z"/>
        </g>
    </g>
</svg>
