<?xml version="1.0" encoding="utf-8"?>
<!-- Generator: Adobe Illustrator 23.0.3, SVG Export Plug-In . SVG Version: 6.00 Build 0)  -->
<svg version="1.1" id="Camada_1" xmlns="http://www.w3.org/2000/svg" xmlns:xlink="http://www.w3.org/1999/xlink" x="0px" y="0px"
	 viewBox="0 0 48 48" style="enable-background:new 0 0 48 48;" xml:space="preserve">
<style type="text/css">
	.st0{fill:#FFFFFF;}
</style>
<g>
	<g>
		<path class="st0" d="M24,0C10.77,0,0,10.77,0,24s10.77,24,24,24s24-10.77,24-24S37.23,0,24,0z M29.97,24.84h-3.9
			c0,6.24,0,13.92,0,13.92h-5.79c0,0,0-7.6,0-13.92h-2.75v-4.92h2.75v-3.18c0-2.28,1.08-5.84,5.84-5.84l4.29,0.02v4.77
			c0,0-2.61,0-3.11,0c-0.51,0-1.23,0.25-1.23,1.34v2.89h4.41L29.97,24.84z"/>
	</g>
</g>
</svg>
