<?xml version="1.0" encoding="utf-8"?>
<!-- Generator: Adobe Illustrator 23.0.3, SVG Export Plug-In . SVG Version: 6.00 Build 0)  -->
<svg version="1.1" id="Camada_1" xmlns="http://www.w3.org/2000/svg" xmlns:xlink="http://www.w3.org/1999/xlink" x="0px" y="0px"
	 viewBox="0 0 48 48" style="enable-background:new 0 0 48 48;" xml:space="preserve">
<style type="text/css">
	.st0{fill:#FFFFFF;}
</style>
<g>
	<path class="st0" d="M28.59,24c0,2.54-2.06,4.59-4.59,4.59s-4.59-2.06-4.59-4.59s2.06-4.59,4.59-4.59S28.59,21.46,28.59,24z"/>
	<path class="st0" d="M34.74,15.87c-0.22-0.6-0.57-1.14-1.03-1.58c-0.44-0.46-0.99-0.81-1.58-1.03c-0.49-0.19-1.22-0.41-2.56-0.47
		c-1.45-0.07-1.89-0.08-5.57-0.08s-4.12,0.01-5.57,0.08c-1.34,0.06-2.07,0.29-2.56,0.47c-0.6,0.22-1.14,0.57-1.58,1.03
		c-0.46,0.44-0.81,0.99-1.03,1.58c-0.19,0.49-0.41,1.22-0.47,2.56c-0.07,1.45-0.08,1.89-0.08,5.57s0.01,4.12,0.08,5.57
		c0.06,1.34,0.29,2.07,0.47,2.56c0.22,0.6,0.57,1.14,1.03,1.58c0.44,0.46,0.99,0.81,1.58,1.03c0.49,0.19,1.22,0.41,2.56,0.47
		c1.45,0.07,1.89,0.08,5.57,0.08s4.12-0.01,5.57-0.08c1.34-0.06,2.07-0.29,2.56-0.47c1.2-0.46,2.15-1.41,2.62-2.62
		c0.19-0.49,0.41-1.22,0.47-2.56c0.07-1.45,0.08-1.89,0.08-5.57s-0.01-4.12-0.08-5.57C35.16,17.09,34.93,16.36,34.74,15.87z
		 M24,31.08c-3.91,0-7.08-3.17-7.08-7.08s3.17-7.08,7.08-7.08s7.08,3.17,7.08,7.08S27.91,31.08,24,31.08z M31.36,18.3
		c-0.91,0-1.65-0.74-1.65-1.65S30.45,15,31.36,15s1.65,0.74,1.65,1.65C33.01,17.56,32.27,18.3,31.36,18.3z"/>
	<path class="st0" d="M24,0C10.75,0,0,10.75,0,24s10.75,24,24,24s24-10.75,24-24S37.25,0,24,0z M37.7,29.68
		c-0.07,1.47-0.3,2.47-0.64,3.35c-0.72,1.85-2.18,3.31-4.03,4.03c-0.88,0.34-1.88,0.57-3.34,0.64c-1.47,0.07-1.94,0.08-5.68,0.08
		s-4.21-0.02-5.68-0.08c-1.47-0.07-2.47-0.3-3.34-0.64c-0.92-0.35-1.75-0.89-2.44-1.59c-0.7-0.69-1.24-1.52-1.59-2.44
		c-0.34-0.88-0.57-1.88-0.64-3.34c-0.07-1.47-0.08-1.94-0.08-5.68s0.02-4.21,0.08-5.68c0.07-1.47,0.3-2.47,0.64-3.35
		c0.35-0.92,0.89-1.75,1.59-2.44c0.69-0.7,1.52-1.24,2.44-1.59c0.88-0.34,1.88-0.57,3.35-0.64c1.47-0.07,1.94-0.08,5.68-0.08
		s4.21,0.02,5.68,0.08c1.47,0.07,2.47,0.3,3.35,0.64c0.92,0.35,1.75,0.89,2.44,1.59c0.7,0.69,1.24,1.52,1.59,2.44
		c0.34,0.88,0.57,1.88,0.64,3.35c0.07,1.47,0.08,1.94,0.08,5.68S37.77,28.21,37.7,29.68z"/>
</g>
</svg>
