<?xml version="1.0" encoding="UTF-8"?>
<!DOCTYPE svg PUBLIC "-//W3C//DTD SVG 1.1//EN" "http://www.w3.org/Graphics/SVG/1.1/DTD/svg11.dtd">
<!-- Creator: CorelDRAW 2019 (64 Bit) -->
<svg xmlns="http://www.w3.org/2000/svg" xml:space="preserve" width="12.3072mm" height="12.3072mm" version="1.1" style="shape-rendering:geometricPrecision; text-rendering:geometricPrecision; image-rendering:optimizeQuality; fill-rule:evenodd; clip-rule:evenodd"
viewBox="0 0 361.28 361.28"
 xmlns:xlink="http://www.w3.org/1999/xlink">
 <defs>
  <style type="text/css">
   <![CDATA[
    .fil0 {fill:white}
   ]]>
  </style>
 </defs>
 <g id="Camada_x0020_1">
  <metadata id="CorelCorpID_0Corel-Layer"/>
  <path class="fil0" d="M180.64 2.94c-97.99,0 -177.71,79.71 -177.71,177.71 0,97.99 79.71,177.71 177.71,177.71 97.99,0 177.71,-79.71 177.71,-177.71 0,-97.99 -79.71,-177.71 -177.71,-177.71zm86.82 143.12c0.08,1.82 0.12,3.68 0.12,5.54 0,56.54 -43.06,121.76 -121.78,121.76 -24.17,0 -46.67,-7.08 -65.61,-19.23 3.35,0.4 6.74,0.6 10.21,0.6 20.06,0 38.51,-6.83 53.15,-18.31 -18.73,-0.34 -34.52,-12.74 -39.98,-29.73 2.62,0.5 5.3,0.77 8.06,0.77 3.9,0 7.69,-0.52 11.27,-1.51 -19.56,-3.95 -34.31,-21.22 -34.31,-41.97 0,-0.19 0,-0.36 0,-0.54 5.77,3.21 12.36,5.14 19.39,5.36 -11.5,-7.69 -19.04,-20.78 -19.04,-35.63 0,-7.84 2.1,-15.19 5.79,-21.53 21.12,25.89 52.65,42.93 88.22,44.72 -0.73,-3.14 -1.12,-6.4 -1.12,-9.75 0,-23.64 19.16,-42.8 42.8,-42.8 12.31,0 23.43,5.19 31.23,13.52 9.74,-1.91 18.91,-5.48 27.18,-10.37 -3.19,9.98 -9.98,18.37 -18.83,23.67 8.67,-1.05 16.9,-3.34 24.59,-6.75 -5.73,8.58 -12.99,16.13 -21.34,22.16z"/>
 </g>
</svg>
